# xmcd
#
# Track frame offsets:
# 150
# 18839
# 39607
# 61334
# 72338
# 96509
# 117466
# 133779
# 158037
# 172624
# 194248
# 212868
#
# Disc length: 3097 seconds
#
#
# Revision: 0
# Processed by: cddbd v1.5.2PL0 Copyright (c) Steve Scherf et al.
# Submitted via: FreeRIP 2.60 
#
DISCID=af0c170c
DTITLE=Dave Steel - blues and ballads
DYEAR=2006
DGENRE=Blues
TTITLE0=safe and sound
TTITLE1=I will do my last walking in this land
TTITLE2=horse trading blues
TTITLE3=bound for glory
TTITLE4=a little dream
TTITLE5=make me down a pallet on your floor
TTITLE6=colour of the wind
TTITLE7=tiffs song
TTITLE8=war all the time
TTITLE9=goodbye traveller
TTITLE10=he was a friend of mine
TTITLE11=goin' to brownsville
EXTD=
EXTT0=
EXTT1=
EXTT2=
EXTT3=
EXTT4=
EXTT5=
EXTT6=
EXTT7=
EXTT8=
EXTT9=
EXTT10=
EXTT11=
PLAYORDER=
